<?xml version="1.0" standalone="no"?>
<!DOCTYPE svg PUBLIC "-//W3C//DTD SVG 1.1//EN" "http://www.w3.org/Graphics/SVG/1.1/DTD/svg11.dtd" >
<svg xmlns="http://www.w3.org/2000/svg" xmlns:xlink="http://www.w3.org/1999/xlink" version="1.1" viewBox="-10 0 865 1000">
   <path fill="currentColor"
d="M785.686 262.062c12.2412 7.05078 19.8105 20.1572 19.8105 34.3018v390.422c0 14.1445 -7.56934 27.208 -19.8105 34.3018l-338.126 195.211c-6.14258 3.54688 -12.9766 5.32031 -19.8105 5.32031s-13.668 -1.77344 -19.8105 -5.32031l-338.126 -195.211
c-12.2412 -7.05078 -19.8105 -20.1572 -19.8105 -34.3018v-390.422c0 -14.1445 7.56934 -27.208 19.8105 -34.3018l338.126 -195.211c6.14258 -3.54688 12.9766 -5.32031 19.8105 -5.32031s13.668 1.77344 19.8105 5.32031zM758.002 682.243v-381.339l-330.254 -190.669
l-330.254 190.669v381.339l330.254 190.669z" />
</svg>
