<?xml version="1.0" encoding="utf-8"?>
<svg width="24" height="24" viewBox="0 0 24 24" fill="none" xmlns="http://www.w3.org/2000/svg">
  <g>
    <rect width="24" height="24" fill="#000000" fill-rule="evenodd" fill-opacity="0" />
    <g transform="translate(2 2)">
      <path
        d="M10.7272 0.301236L16.3438 2.6277Q16.5167 2.69932 16.6724 2.80331Q16.828 2.9073 16.9604 3.03965Q17.0927 3.172 17.1967 3.32763Q17.3007 3.48326 17.3723 3.65618L19.6988 9.27275Q19.7704 9.44568 19.8069 9.62925Q19.8434 9.81283 19.8434 10Q19.8434 10.1872 19.8069 10.3707Q19.7704 10.5543 19.6988 10.7272L17.3723 16.3438Q17.3007 16.5167 17.1967 16.6724Q17.0927 16.828 16.9604 16.9604Q16.828 17.0927 16.6724 17.1967Q16.5167 17.3007 16.3438 17.3723L10.7272 19.6988Q10.5543 19.7704 10.3707 19.8069Q10.1872 19.8434 10 19.8434Q9.81283 19.8434 9.62925 19.8069Q9.44568 19.7704 9.27275 19.6988L3.65618 17.3723Q3.48326 17.3007 3.32763 17.1967Q3.172 17.0927 3.03965 16.9604Q2.9073 16.828 2.80331 16.6724Q2.69932 16.5167 2.6277 16.3438L0.301236 10.7272Q0.229608 10.5543 0.193093 10.3707Q0.156577 10.1872 0.156577 10Q0.156577 9.81283 0.193093 9.62925Q0.229608 9.44568 0.301236 9.27275L2.6277 3.65618Q2.69933 3.48325 2.80331 3.32763Q2.9073 3.172 3.03965 3.03965Q3.172 2.9073 3.32763 2.80331Q3.48326 2.69932 3.65618 2.6277L9.27275 0.301236Q9.44568 0.229608 9.62925 0.193093Q9.81283 0.156577 10 0.156577Q10.1872 0.156577 10.3707 0.193093Q10.5543 0.229608 10.7272 0.301236Z" />
      <path
        d="M16.1872 2.47112L10.5707 0.144659Q10.3977 0.0730309 10.2142 0.0365154Q10.0306 -2.98023e-08 9.84342 -2.98023e-08Q9.65625 -2.98023e-08 9.47267 0.0365154Q9.2891 0.0730309 9.11617 0.144659L3.4996 2.47112Q3.32668 2.54275 3.17105 2.64673Q3.01542 2.75072 2.88307 2.88307Q2.75072 3.01542 2.64673 3.17105Q2.54275 3.32668 2.47112 3.4996L0.144659 9.11617Q0.0730311 9.2891 0.0365156 9.47268Q7.2336e-08 9.65625 4.09782e-08 9.84342Q9.62039e-09 10.0306 0.0365155 10.2142Q0.0730309 10.3977 0.144659 10.5707L2.47112 16.1872Q2.54275 16.3602 2.64673 16.5158Q2.75072 16.6714 2.88307 16.8038Q3.01542 16.9361 3.17105 17.0401Q3.32668 17.1441 3.4996 17.2157L9.11617 19.5422Q9.2891 19.6138 9.47268 19.6503Q9.65625 19.6868 9.84342 19.6868Q10.0306 19.6868 10.2142 19.6503Q10.3977 19.6138 10.5707 19.5422L16.1872 17.2157Q16.3602 17.1441 16.5158 17.0401Q16.6714 16.9361 16.8038 16.8038Q16.9361 16.6714 17.0401 16.5158Q17.1441 16.3602 17.2157 16.1872L19.5422 10.5707Q19.6138 10.3977 19.6503 10.2142Q19.6868 10.0306 19.6868 9.84342Q19.6868 9.65625 19.6503 9.47268Q19.6138 9.2891 19.5422 9.11617L17.2157 3.4996Q17.1441 3.32668 17.0401 3.17105Q16.9361 3.01542 16.8038 2.88307Q16.6714 2.75072 16.5158 2.64673Q16.3602 2.54275 16.1872 2.47112ZM9.49886 1.06854Q9.84342 0.925815 10.188 1.06854L15.8046 3.395Q16.1491 3.53772 16.2918 3.88229L18.6183 9.49886Q18.761 9.84342 18.6183 10.188L16.2918 15.8046Q16.1491 16.1491 15.8046 16.2918L10.188 18.6183Q9.84342 18.761 9.49886 18.6183L3.88229 16.2918Q3.53772 16.1491 3.395 15.8046L1.06854 10.188Q0.925815 9.84342 1.06854 9.49886L3.395 3.88229Q3.53772 3.53772 3.88229 3.395L9.49886 1.06854Z"
        fill="currentColor" fill-rule="evenodd" />
    </g>
  </g>
</svg>