<?xml version="1.0" encoding="utf-8"?>
<svg width="24" height="24" viewBox="0 0 24 24" fill="none" xmlns="http://www.w3.org/2000/svg">
  <g>
    <path
      d="M12.0289 0.384304L21.9082 7.562Q21.9655 7.60363 22.0156 7.65371Q22.0657 7.70379 22.1073 7.76109Q22.1489 7.81839 22.1811 7.88149Q22.2132 7.9446 22.2351 8.01195Q22.257 8.07931 22.2681 8.14926Q22.2792 8.21922 22.2792 8.29004Q22.2792 8.36086 22.2681 8.43081Q22.257 8.50077 22.2351 8.56812L18.4616 20.1819Q18.4397 20.2492 18.4075 20.3123Q18.3754 20.3754 18.3337 20.4327Q18.2921 20.49 18.242 20.5401Q18.192 20.5902 18.1347 20.6318Q18.0774 20.6735 18.0143 20.7056Q17.9512 20.7378 17.8838 20.7597Q17.8164 20.7815 17.7465 20.7926Q17.6765 20.8037 17.6057 20.8037L5.39429 20.8037Q5.32346 20.8037 5.25351 20.7926Q5.18356 20.7815 5.1162 20.7597Q5.04885 20.7378 4.98574 20.7056Q4.92264 20.6735 4.86534 20.6318Q4.80804 20.5902 4.75796 20.5401Q4.70788 20.49 4.66625 20.4327Q4.62462 20.3754 4.59247 20.3123Q4.56032 20.2492 4.53843 20.1819L0.76489 8.56812Q0.743005 8.50076 0.731925 8.43081Q0.720846 8.36086 0.720846 8.29004Q0.720846 8.21921 0.731925 8.14926Q0.743005 8.07931 0.76489 8.01195Q0.786776 7.9446 0.81893 7.88149Q0.851083 7.81839 0.892712 7.76109Q0.934341 7.70379 0.984421 7.65371Q1.0345 7.60363 1.0918 7.562L10.9711 0.384304Q11.0283 0.342675 11.0915 0.310522Q11.1546 0.278368 11.2219 0.256483Q11.2893 0.234597 11.3592 0.223518Q11.4292 0.212438 11.5 0.212438Q11.5708 0.212438 11.6408 0.223517Q11.7107 0.234597 11.7781 0.256483Q11.8454 0.278368 11.9085 0.310522Q11.9717 0.342675 12.0289 0.384304Z"
      fill="currentColor" fill-rule="evenodd" transform="translate(0.5 0.5)" />
  </g>
</svg>