<?xml version="1.0" standalone="no"?>
<!DOCTYPE svg PUBLIC "-//W3C//DTD SVG 1.1//EN" "http://www.w3.org/Graphics/SVG/1.1/DTD/svg11.dtd" >
<svg xmlns="http://www.w3.org/2000/svg" xmlns:xlink="http://www.w3.org/1999/xlink" version="1.1" viewBox="-10 0 921 1000">
   <path fill="currentColor"
d="M847.281 411.537c8.43457 6.44531 13.4072 16.5234 13.4072 27.1641v116.184c0 10.6406 -4.93066 20.6758 -13.4082 27.1641l-371.174 269.005c-6.09863 4.71484 -13.4521 7.05078 -20.7627 7.05078s-14.6211 -2.37891 -20.7637 -7.05078l-371.174 -269.005
c-8.43457 -6.44531 -13.4092 -16.5234 -13.4092 -27.1641v-116.184c0 -10.6406 4.93066 -20.6758 13.4092 -27.1641l371.174 -285.484c6.14258 -4.71484 13.4531 -7.05078 20.7637 -7.05078s14.6211 2.37891 20.7637 7.05078zM813.194 548.138v-102.861l-357.851 -275.276
l-357.851 275.276v102.861l357.851 259.358z" />
</svg>
