<?xml version="1.0" standalone="no"?>
<!DOCTYPE svg PUBLIC "-//W3C//DTD SVG 1.1//EN" "http://www.w3.org/Graphics/SVG/1.1/DTD/svg11.dtd" >
<svg xmlns="http://www.w3.org/2000/svg" xmlns:xlink="http://www.w3.org/1999/xlink" version="1.1" viewBox="-10 0 862 1000">
   <path fill="currentColor"
d="M800.35 481.047c2.24902 6.87793 2.24902 14.2744 0 21.1523l-65.2725 200.921c-2.20605 6.83398 -6.5752 12.8467 -12.415 17.0859l-170.901 124.143c-5.83984 4.23926 -12.8906 6.53223 -20.1143 6.53223h-211.259c-7.22363 0 -14.2744 -2.29297 -20.1143 -6.53223
l-170.901 -124.143c-5.83984 -4.23926 -10.165 -10.208 -12.4141 -17.0859l-65.2725 -200.921c-2.24902 -6.87793 -2.24902 -14.2744 0 -21.1523l65.2725 -200.878c2.20605 -6.83398 6.5752 -12.8467 12.415 -17.0859l170.901 -124.143
c5.83984 -4.23926 12.8906 -6.53223 20.1143 -6.53223h211.259c7.22363 0 14.2744 2.29297 20.1143 6.53223l170.901 124.143c5.83984 4.23926 10.165 10.208 12.4141 17.0859z" />
</svg>
