<?xml version="1.0" encoding="utf-8"?>
<svg width="24" height="24" viewBox="0 0 24 24" fill="none" xmlns="http://www.w3.org/2000/svg">
  <g>
    <path
      d="M12.7717 1.2861L23.1823 18.6371Q23.2129 18.6881 23.2365 18.7427Q23.2601 18.7972 23.2763 18.8544Q23.2926 18.9116 23.3011 18.9705Q23.3097 19.0293 23.3104 19.0887Q23.3112 19.1482 23.3041 19.2072Q23.297 19.2663 23.2822 19.3239Q23.2675 19.3815 23.2452 19.4366Q23.223 19.4917 23.1937 19.5435Q23.1644 19.5952 23.1286 19.6427Q23.0927 19.6901 23.0509 19.7324Q23.0092 19.7747 22.9622 19.8111Q22.9152 19.8476 22.8638 19.8775Q22.8125 19.9075 22.7576 19.9304Q22.7027 19.9533 22.6453 19.9688Q22.5879 19.9844 22.529 19.9922Q22.4701 20 22.4106 20L1.5894 20Q1.52994 20 1.471 19.9922Q1.41206 19.9844 1.35466 19.9688Q1.29726 19.9533 1.2424 19.9304Q1.18754 19.9075 1.13617 19.8775Q1.08481 19.8476 1.03783 19.8111Q0.990848 19.7747 0.949071 19.7324Q0.907294 19.6901 0.871446 19.6427Q0.835599 19.5952 0.806304 19.5435Q0.777009 19.4917 0.754776 19.4366Q0.732544 19.3815 0.717759 19.3239Q0.702975 19.2663 0.695897 19.2072Q0.688818 19.1482 0.689568 19.0887Q0.690318 19.0293 0.698884 18.9705Q0.70745 18.9116 0.723682 18.8544Q0.739914 18.7972 0.763531 18.7427Q0.787148 18.6881 0.817739 18.6371L11.2283 1.2861Q11.2582 1.23634 11.2942 1.19082Q11.3302 1.14531 11.3717 1.10479Q11.4133 1.06428 11.4597 1.02944Q11.5061 0.994593 11.5566 0.966001Q11.6071 0.937408 11.6609 0.915539Q11.7146 0.893669 11.7707 0.878885Q11.8269 0.864101 11.8844 0.856647Q11.942 0.849193 12 0.849193Q12.058 0.849193 12.1156 0.856647Q12.1731 0.864101 12.2293 0.878885Q12.2854 0.893669 12.3391 0.915539Q12.3929 0.937408 12.4434 0.966001Q12.4939 0.994593 12.5403 1.02944Q12.5867 1.06428 12.6282 1.10479Q12.6698 1.14531 12.7058 1.19082Q12.7418 1.23634 12.7717 1.2861Z"
      fill="currentColor" fill-rule="evenodd" transform="translate(0 1)" />
  </g>
</svg>