<?xml version="1.0" encoding="utf-8"?>
<svg width="24" height="24" viewBox="0 0 24 24" fill="none" xmlns="http://www.w3.org/2000/svg">
  <g>
    <path
      d="M11.2781 0.0903553L17.1876 2.01046Q17.3231 2.0545 17.4384 2.13828Q17.5537 2.22206 17.6375 2.33737L21.2898 7.36426Q21.3735 7.47957 21.4176 7.61512Q21.4616 7.75068 21.4616 7.89321L21.4616 14.1068Q21.4616 14.2493 21.4176 14.3849Q21.3735 14.5204 21.2898 14.6357L17.6375 19.6626Q17.5537 19.7779 17.4384 19.8617Q17.3231 19.9455 17.1876 19.9895L11.2781 21.9096Q11.1425 21.9537 11 21.9537Q10.8575 21.9537 10.7219 21.9096L4.81245 19.9895Q4.67689 19.9455 4.56158 19.8617Q4.44627 19.7779 4.3625 19.6626L0.710245 14.6357Q0.626468 14.5204 0.582424 14.3849Q0.538379 14.2493 0.538379 14.1068L0.538378 7.89321Q0.538378 7.75068 0.582422 7.61513Q0.626467 7.47957 0.710244 7.36426L4.3625 2.33737Q4.44628 2.22206 4.56159 2.13828Q4.6769 2.0545 4.81245 2.01046L10.7219 0.0903553Q10.8575 0.046311 11 0.046311Q11.1425 0.046311 11.2781 0.0903553Z"
      fill="currentColor" fill-rule="evenodd" transform="translate(1 1)" />
  </g>
</svg>