<?xml version="1.0" encoding="utf-8"?>
<svg width="24" height="24" viewBox="0 0 24 24" fill="none" xmlns="http://www.w3.org/2000/svg">
  <g>
    <rect width="24" height="24" fill="#000000" fill-rule="evenodd" fill-opacity="0" />
    <path
      d="M10.7272 0.301236L16.3438 2.6277Q16.5167 2.69932 16.6724 2.80331Q16.828 2.9073 16.9604 3.03965Q17.0927 3.172 17.1967 3.32763Q17.3007 3.48326 17.3723 3.65618L19.6988 9.27275Q19.7704 9.44568 19.8069 9.62925Q19.8434 9.81283 19.8434 10Q19.8434 10.1872 19.8069 10.3707Q19.7704 10.5543 19.6988 10.7272L17.3723 16.3438Q17.3007 16.5167 17.1967 16.6724Q17.0927 16.828 16.9604 16.9604Q16.828 17.0927 16.6724 17.1967Q16.5167 17.3007 16.3438 17.3723L10.7272 19.6988Q10.5543 19.7704 10.3707 19.8069Q10.1872 19.8434 10 19.8434Q9.81283 19.8434 9.62925 19.8069Q9.44568 19.7704 9.27275 19.6988L3.65618 17.3723Q3.48326 17.3007 3.32763 17.1967Q3.172 17.0927 3.03965 16.9604Q2.9073 16.828 2.80331 16.6724Q2.69932 16.5167 2.6277 16.3438L0.301236 10.7272Q0.229608 10.5543 0.193093 10.3707Q0.156577 10.1872 0.156577 10Q0.156577 9.81283 0.193093 9.62925Q0.229608 9.44568 0.301236 9.27275L2.6277 3.65618Q2.69933 3.48325 2.80331 3.32763Q2.9073 3.172 3.03965 3.03965Q3.172 2.9073 3.32763 2.80331Q3.48326 2.69932 3.65618 2.6277L9.27275 0.301236Q9.44568 0.229608 9.62925 0.193093Q9.81283 0.156577 10 0.156577Q10.1872 0.156577 10.3707 0.193093Q10.5543 0.229608 10.7272 0.301236Z"
      fill="currentColor" fill-rule="evenodd" transform="translate(2 2)" />
  </g>
</svg>