<?xml version="1.0" encoding="utf-8"?>
<svg width="24" height="24" viewBox="0 0 24 24" fill="none" xmlns="http://www.w3.org/2000/svg">
  <g>
    <path
      d="M11.95 0.259779L21.0093 5.49022Q21.1119 5.54946 21.1957 5.63323Q21.2795 5.71701 21.3387 5.81961Q21.398 5.92221 21.4286 6.03665Q21.4593 6.15108 21.4593 6.26956L21.4593 16.7304Q21.4593 16.8489 21.4286 16.9634Q21.398 17.0778 21.3387 17.1804Q21.2795 17.283 21.1957 17.3668Q21.1119 17.4505 21.0093 17.5098L11.95 22.7402Q11.8474 22.7995 11.7329 22.8301Q11.6185 22.8608 11.5 22.8608Q11.3815 22.8608 11.2671 22.8301Q11.1527 22.7995 11.05 22.7402L1.99066 17.5098Q1.88806 17.4505 1.80428 17.3668Q1.72051 17.283 1.66127 17.1804Q1.60204 17.0778 1.57137 16.9634Q1.54071 16.8489 1.54071 16.7304L1.54071 6.26956Q1.54071 6.15109 1.57137 6.03665Q1.60203 5.92221 1.66127 5.81961Q1.72051 5.71701 1.80428 5.63323Q1.88806 5.54946 1.99066 5.49022L11.05 0.25978Q11.1527 0.200542 11.2671 0.169879Q11.3815 0.139215 11.5 0.139215Q11.6185 0.139215 11.7329 0.169879Q11.8474 0.200542 11.95 0.259779L11.95 0.259779Z"
      fill="currentColor" fill-rule="evenodd" transform="translate(0.5 0.5)" />
  </g>
</svg>