<?xml version="1.0" encoding="utf-8"?>
<svg width="24" height="24" viewBox="0 0 24 24" fill="none" xmlns="http://www.w3.org/2000/svg">
  <g>
    <path
      d="M11.5196 0.367352L21.6196 7.50882Q21.7078 7.57116 21.7787 7.65259Q21.8496 7.73401 21.8993 7.82991Q21.9489 7.9258 21.9745 8.03071Q22 8.13562 22 8.2436L22 11.7912Q22 11.8994 21.9743 12.0046Q21.9487 12.1097 21.8988 12.2058Q21.8489 12.3018 21.7777 12.3833Q21.7065 12.4648 21.618 12.5271L11.518 19.6355Q11.4614 19.6753 11.3995 19.7059Q11.3376 19.7366 11.2717 19.7575Q11.2058 19.7784 11.1375 19.7889Q11.0691 19.7995 11 19.7995Q10.9309 19.7995 10.8626 19.7889Q10.7943 19.7784 10.7284 19.7575Q10.6625 19.7366 10.6006 19.7059Q10.5386 19.6753 10.4821 19.6355L0.382009 12.5271Q0.293504 12.4648 0.222292 12.3833Q0.15108 12.3018 0.101221 12.2058Q0.0513627 12.1097 0.0257012 12.0046Q3.96458e-05 11.8994 3.86238e-05 11.7912L4.52995e-06 8.24361Q3.47994e-06 8.13563 0.0255475 8.03072Q0.0510915 7.9258 0.10073 7.82991Q0.150369 7.73402 0.221285 7.65259Q0.292201 7.57116 0.380367 7.50882L10.4805 0.367351Q10.5371 0.327303 10.5992 0.296408Q10.6613 0.265513 10.7275 0.244502Q10.7936 0.223491 10.8621 0.21286Q10.9307 0.202229 11 0.202229Q11.0694 0.202229 11.1379 0.21286Q11.2065 0.223492 11.2726 0.244503Q11.3387 0.265514 11.4008 0.296409Q11.4629 0.327303 11.5196 0.367352L11.5196 0.367352Z"
      fill="currentColor" fill-rule="evenodd" transform="translate(1 2)" />
  </g>
</svg>